<svg width="80" height="80" viewBox="0 0 80 80" fill="none" xmlns="http://www.w3.org/2000/svg">
<circle opacity="0.05" cx="40" cy="40" r="40" fill="#30B852"/>
<circle opacity="0.05" cx="40" cy="40" r="32" fill="#30B852"/>
<path d="M40 20C51.0456 20 60 28.9543 60 40C60 51.0456 51.0456 60 40 60C28.9543 60 20 51.0456 20 40C20 28.9543 28.9543 20 40 20ZM46.4394 33.9393L37.5 42.8786L33.5607 38.9394C32.9749 38.3536 32.0251 38.3536 31.4393 38.9394C30.8536 39.5252 30.8536 40.4748 31.4393 41.0606L36.4394 46.0606C37.0252 46.6464 37.9748 46.6464 38.5606 46.0606L48.5606 36.0606C49.1464 35.4749 49.1464 34.5251 48.5606 33.9393C47.9748 33.3536 47.0252 33.3536 46.4394 33.9393Z" fill="#30B852"/>
</svg>
