<svg width="64" height="64" viewBox="0 0 64 64" fill="none" xmlns="http://www.w3.org/2000/svg">
<circle opacity="0.05" cx="32" cy="32" r="32" fill="#FF9500"/>
<circle opacity="0.05" cx="31.9999" cy="32" r="25.6" fill="#FF9500"/>
<path d="M30.2545 17.2515C31.9182 16.33 33.995 16.8654 35.0155 18.4358L35.148 18.6564L47.5624 41.0696C47.858 41.6034 48.0132 42.2037 48.0132 42.8139C48.0132 44.7192 46.5329 46.2789 44.6596 46.4056L44.4132 46.4139H19.588C18.9779 46.4139 18.3778 46.2589 17.844 45.9634C16.1803 45.0421 15.5322 42.9975 16.3219 41.2992L16.4386 41.0699L28.8494 18.6567C29.1766 18.0658 29.6636 17.5788 30.2545 17.2515ZM32.0017 38.4029C31.1192 38.4029 30.4038 39.1182 30.4038 40.0007C30.4038 40.8832 31.1192 41.5986 32.0017 41.5986C32.8841 41.5986 33.5995 40.8832 33.5995 40.0007C33.5995 39.1182 32.8841 38.4029 32.0017 38.4029ZM31.9982 25.5969C31.1777 25.5972 30.5016 26.2151 30.4096 27.0109L30.3988 27.1975L30.4017 35.1989L30.4124 35.3854C30.5052 36.1811 31.1817 36.7986 32.0022 36.7983C32.8228 36.7981 33.4988 36.1802 33.591 35.3843L33.6017 35.1978L33.5988 27.1963L33.588 27.0097C33.4953 26.214 32.8187 25.5966 31.9982 25.5969Z" fill="#FF9500"/>
</svg>
